HIERARCHY
ROOT Hips
{
    OFFSET   0.000000   0.000000   0.000000
    CHANNELS 6 Xposition Yposition Zposition Zrotation Xrotation Yrotation
    JOINT Chest
    {
        OFFSET   0.000000   8.007230   0.000000
        CHANNELS 3 Zrotation Xrotation Yrotation
        JOINT Chest2
        {
            OFFSET   0.000000  22.077100   0.000000
            CHANNELS 3 Zrotation Xrotation Yrotation
            JOINT Neck
            {
                OFFSET   0.000000  23.254700   0.000000
                CHANNELS 3 Zrotation Xrotation Yrotation
                JOINT Head
                {
                    OFFSET   0.000010  14.370000   1.956610
                    CHANNELS 3 Zrotation Xrotation Yrotation
                    End Site
                    {
                        OFFSET   0.000000  19.566000   0.000000
                    }
                }
            }
            JOINT LeftCollar
            {
                OFFSET   3.911900  19.017000  -0.467063
                CHANNELS 3 Zrotation Xrotation Yrotation
                JOINT LeftShoulder
                {
                    OFFSET  10.383700   0.000000   0.000000
                    CHANNELS 3 Zrotation Xrotation Yrotation
                    JOINT LeftElbow
                    {
                        OFFSET  26.662100   0.001671   0.000522
                        CHANNELS 3 Zrotation Xrotation Yrotation
                        JOINT LeftWrist
                        {
                            OFFSET  28.869000   0.000037  -0.000114
                            CHANNELS 3 Zrotation Xrotation Yrotation
                            JOINT LeftFinger0
                            {
                                OFFSET   2.044650  -2.323450   3.252850
                                CHANNELS 3 Zrotation Xrotation Yrotation
                                JOINT LeftFinger01
                                {
                                    OFFSET   3.088140   0.000000   0.000000
                                    CHANNELS 3 Zrotation Xrotation Yrotation
                                    JOINT LeftFinger02
                                    {
                                        OFFSET   2.639460   0.000000   0.000000
                                        CHANNELS 3 Zrotation Xrotation Yrotation
                                        End Site
                                        {
                                            OFFSET   2.582190   0.000000   0.000000
                                        }
                                    }
                                }
                            }
                            JOINT LeftFinger1
                            {
                                OFFSET   8.364480   0.000000   3.252850
                                CHANNELS 3 Zrotation Xrotation Yrotation
                                JOINT LeftFinger11
                                {
                                    OFFSET   4.646930   0.000000   0.000000
                                    CHANNELS 3 Zrotation Xrotation Yrotation
                                    JOINT LeftFinger12
                                    {
                                        OFFSET   2.323470   0.000000   0.000000
                                        CHANNELS 3 Zrotation Xrotation Yrotation
                                        End Site
                                        {
                                            OFFSET   2.273050   0.000000   0.000000
                                        }
                                    }
                                }
                            }
                            JOINT LeftFinger2
                            {
                                OFFSET   8.364490   0.000016   1.078090
                                CHANNELS 3 Zrotation Xrotation Yrotation
                                JOINT LeftFinger21
                                {
                                    OFFSET   5.111620   0.000000   0.000000
                                    CHANNELS 3 Zrotation Xrotation Yrotation
                                    JOINT LeftFinger22
                                    {
                                        OFFSET   2.788150   0.000013   0.000000
                                        CHANNELS 3 Zrotation Xrotation Yrotation
                                        End Site
                                        {
                                            OFFSET   2.727660   0.000000   0.000000
                                        }
                                    }
                                }
                            }
                            JOINT LeftFinger3
                            {
                                OFFSET   7.899780   0.000016  -1.078090
                                CHANNELS 3 Zrotation Xrotation Yrotation
                                JOINT LeftFinger31
                                {
                                    OFFSET   4.646930   0.000000   0.000000
                                    CHANNELS 3 Zrotation Xrotation Yrotation
                                    JOINT LeftFinger32
                                    {
                                        OFFSET   2.323470   0.000000   0.000000
                                        CHANNELS 3 Zrotation Xrotation Yrotation
                                        End Site
                                        {
                                            OFFSET   2.273050   0.000000   0.000000
                                        }
                                    }
                                }
                            }
                            JOINT LeftFinger4
                            {
                                OFFSET   7.435080   0.000000  -3.252850
                                CHANNELS 3 Zrotation Xrotation Yrotation
                                JOINT LeftFinger41
                                {
                                    OFFSET   3.717550   0.000000   0.000000
                                    CHANNELS 3 Zrotation Xrotation Yrotation
                                    JOINT LeftFinger42
                                    {
                                        OFFSET   1.858760   0.000000   0.000000
                                        CHANNELS 3 Zrotation Xrotation Yrotation
                                        End Site
                                        {
                                            OFFSET   1.818440   0.000000   0.000000
                                        }
                                    }
                                }
                            }
                        }
                    }
                }
            }
            JOINT RightCollar
            {
                OFFSET  -3.911900  19.017000  -0.467064
                CHANNELS 3 Zrotation Xrotation Yrotation
                JOINT RightShoulder
                {
                    OFFSET -10.383700   0.000000   0.000000
                    CHANNELS 3 Zrotation Xrotation Yrotation
                    JOINT RightElbow
                    {
                        OFFSET -26.662100   0.001633   0.000260
                        CHANNELS 3 Zrotation Xrotation Yrotation
                        JOINT RightWrist
                        {
                            OFFSET -28.869000  -0.000045  -0.000080
                            CHANNELS 3 Zrotation Xrotation Yrotation
                            JOINT RightFinger0
                            {
                                OFFSET  -2.044660  -2.323490   3.252850
                                CHANNELS 3 Zrotation Xrotation Yrotation
                                JOINT RightFinger01
                                {
                                    OFFSET  -3.088140   0.000000   0.000000
                                    CHANNELS 3 Zrotation Xrotation Yrotation
                                    JOINT RightFinger02
                                    {
                                        OFFSET  -2.639450   0.000000   0.000000
                                        CHANNELS 3 Zrotation Xrotation Yrotation
                                        End Site
                                        {
                                            OFFSET  -2.582190   0.000000   0.000000
                                        }
                                    }
                                }
                            }
                            JOINT RightFinger1
                            {
                                OFFSET  -8.364480   0.000000   3.252850
                                CHANNELS 3 Zrotation Xrotation Yrotation
                                JOINT RightFinger11
                                {
                                    OFFSET  -4.646920   0.000000   0.000000
                                    CHANNELS 3 Zrotation Xrotation Yrotation
                                    JOINT RightFinger12
                                    {
                                        OFFSET  -2.323470   0.000000   0.000000
                                        CHANNELS 3 Zrotation Xrotation Yrotation
                                        End Site
                                        {
                                            OFFSET  -2.273050   0.000000   0.000000
                                        }
                                    }
                                }
                            }
                            JOINT RightFinger2
                            {
                                OFFSET  -8.364480   0.000000   1.078090
                                CHANNELS 3 Zrotation Xrotation Yrotation
                                JOINT RightFinger21
                                {
                                    OFFSET  -5.111610   0.000000   0.000000
                                    CHANNELS 3 Zrotation Xrotation Yrotation
                                    JOINT RightFinger22
                                    {
                                        OFFSET  -2.788160   0.000000   0.000000
                                        CHANNELS 3 Zrotation Xrotation Yrotation
                                        End Site
                                        {
                                            OFFSET  -2.727660   0.000000   0.000000
                                        }
                                    }
                                }
                            }
                            JOINT RightFinger3
                            {
                                OFFSET  -7.899780   0.000000  -1.078090
                                CHANNELS 3 Zrotation Xrotation Yrotation
                                JOINT RightFinger31
                                {
                                    OFFSET  -4.646930   0.000000   0.000000
                                    CHANNELS 3 Zrotation Xrotation Yrotation
                                    JOINT RightFinger32
                                    {
                                        OFFSET  -2.323470   0.000000   0.000000
                                        CHANNELS 3 Zrotation Xrotation Yrotation
                                        End Site
                                        {
                                            OFFSET  -2.273050   0.000000   0.000000
                                        }
                                    }
                                }
                            }
                            JOINT RightFinger4
                            {
                                OFFSET  -7.435090   0.000000  -3.252850
                                CHANNELS 3 Zrotation Xrotation Yrotation
                                JOINT RightFinger41
                                {
                                    OFFSET  -3.717550   0.000000   0.000000
                                    CHANNELS 3 Zrotation Xrotation Yrotation
                                    JOINT RightFinger42
                                    {
                                        OFFSET  -1.858760   0.000000   0.000000
                                        CHANNELS 3 Zrotation Xrotation Yrotation
                                        End Site
                                        {
                                            OFFSET  -1.818440   0.000000   0.000000
                                        }
                                    }
                                }
                            }
                        }
                    }
                }
            }
        }
    }
    JOINT LeftHip
    {
        OFFSET   9.782990   0.000000   0.000000
        CHANNELS 3 Zrotation Xrotation Yrotation
        JOINT LeftKnee
        {
            OFFSET  -0.000063 -41.789100   0.001657
            CHANNELS 3 Zrotation Xrotation Yrotation
            JOINT LeftAnkle
            {
                OFFSET   0.000078 -41.133200  -0.000113
                CHANNELS 3 Zrotation Xrotation Yrotation
                JOINT LeftToe
                {
                    OFFSET   0.000000  -6.358970  14.674500
                    CHANNELS 3 Zrotation Xrotation Yrotation
                    End Site
                    {
                        OFFSET   0.000000   0.000000   3.913200
                    }
                }
            }
        }
    }
    JOINT RightHip
    {
        OFFSET  -9.782990   0.000000   0.000000
        CHANNELS 3 Zrotation Xrotation Yrotation
        JOINT RightKnee
        {
            OFFSET   0.000053 -41.789200   0.000277
            CHANNELS 3 Zrotation Xrotation Yrotation
            JOINT RightAnkle
            {
                OFFSET   0.000030 -41.133200  -0.000150
                CHANNELS 3 Zrotation Xrotation Yrotation
                JOINT RightToe
                {
                    OFFSET   0.000000  -6.358960  14.674500
                    CHANNELS 3 Zrotation Xrotation Yrotation
                    End Site
                    {
                        OFFSET   0.000000   0.000000   3.913200
                    }
                }
            }
        }
    }
}
MOTION
Frames: 5
Frame Time:   0.016667
  0.076884  89.571000   0.590710  -2.120210  -4.900950  -2.506520   0.233657   3.051570  -0.369658   0.488098   6.101550  -0.753407   0.645271   0.171242  -0.002961   1.060140   0.346887   1.377200  -3.590160  -2.217310   2.220190 -76.333200  11.578900  -0.002388  -0.102517  -2.025390 -14.500900   9.468600  -5.985460  -0.621256  38.279200  27.106700 -56.543200 -28.905600   0.000000   0.000000  -9.452800  -0.004982  -0.004798 -27.156700   4.289680  -8.305890 -22.473800   0.001895  -0.008498 -15.741400  -0.006536  -0.007630 -28.353100  -1.284330   2.378680 -34.896200   0.002152  -0.007106 -23.240800   0.001270  -0.011590 -27.806400  -1.261590   2.390810 -30.967500   0.000000  -0.002539 -20.626800  -0.001792  -0.002736 -29.432800  -1.328920   2.354070 -44.185400   0.002416   0.000000 -29.430900   0.001295   0.001049   9.046680   0.910408   3.657540  72.416000   1.518120  -4.805020  -0.965020  -7.577260  10.734400 -14.421200  -3.906490  -2.514770 -38.173900  34.971700  71.428900  31.880000  -0.003273  -0.003058  10.947900   0.001123  -0.002962  31.822300   7.061080  11.201300  26.604900  -0.000092  -0.000454  18.631100  -0.001472  -0.000697  33.011100   4.674960   7.151950  49.955200  -0.004722   0.004139  33.270100   0.004311   0.002419  28.589300   3.425790   6.259950  40.788200   0.000000  -0.003458  27.164900   0.003534   0.000000  39.966100  -1.059110  -1.262630  59.955400  -0.002848   0.008162  39.937600   0.007564   0.009478   1.297340   7.389160   2.765300   1.106170   0.174186   5.914770  -0.576480  -3.633770   0.685366  -0.000000   0.000000   0.000000   2.656020   6.222730   2.657020   0.131063   1.645510  -6.726520  -1.233670  -3.946380  -2.907780  -0.000000   0.000000  -0.000000
  0.076691  89.571000   0.581643  -2.120570  -4.915880  -2.505770   0.233668   3.062280  -0.368116   0.488115   6.122980  -0.750370   0.652609   0.187044  -0.002917   1.072200   0.379281   1.396490  -3.589810  -2.210620   2.230860 -76.323700  11.598900  -0.019251  -0.104815  -2.035920 -14.514700   9.467610  -5.991950  -0.628082  38.270100  27.105100 -56.541900 -28.921500   0.000000   0.000019  -9.460750  -0.004974  -0.004826 -27.156500   4.289710  -8.306080 -22.473600   0.001895  -0.008492 -15.741300  -0.006532  -0.007624 -28.353000  -1.285300   2.380360 -34.907400   0.002159  -0.007117 -23.248300   0.001273  -0.011603 -27.806300  -1.262540   2.392500 -30.967300   0.000030  -0.002541 -20.626700  -0.001797  -0.002760 -29.432300  -1.330040   2.355660 -44.190800   0.002422   0.000000 -29.430500   0.001285   0.001090   9.053240   0.895747   3.664890  72.405800   1.542180  -4.811660  -0.960253  -7.587250  10.726900 -14.421100  -3.910170  -2.514670 -38.166600  34.976100  71.438100  31.887000  -0.003272  -0.003051  10.947700   0.001122  -0.002947  31.825400   7.054300  11.188000  26.605000  -0.000092  -0.000451  18.631300  -0.001480  -0.000673  33.009700   4.674730   7.151950  49.953100  -0.004728   0.004136  33.268700   0.004310   0.002413  28.589000   3.427290   6.262730  40.782900   0.000000  -0.003468  27.161400   0.003517  -0.000020  39.964300  -1.059190  -1.262740  59.956400  -0.002851   0.008149  39.935900   0.007556   0.009484   1.296330   7.409120   2.765450   1.105430   0.150562   5.915060  -0.575765  -3.615770   0.684303  -0.000000   0.000000   0.000000   2.657660   6.230220   2.656860   0.131574   1.646930  -6.738400  -1.233250  -3.941850  -2.903710   0.000000   0.000000   0.000000
  0.076499  89.570900   0.567139  -2.121260  -4.943010  -2.502560   0.233678   3.080170  -0.365547   0.488124   6.158770  -0.745311   0.664640   0.218248  -0.002873   1.091980   0.442897   1.432820  -3.589240  -2.200360   2.250720 -76.311500  11.635900  -0.049550  -0.107822  -2.055660 -14.534400   9.466610  -5.998430  -0.634909  38.259300  27.102600 -56.540000 -28.937400   0.000000   0.000063  -9.468700  -0.004960  -0.004873 -27.156200   4.289770  -8.306420 -22.473400   0.001894  -0.008475 -15.741100  -0.006520  -0.007607 -28.352900  -1.286260   2.382040 -34.918700   0.002175  -0.007145 -23.255800   0.001282  -0.011635 -27.806200  -1.263490   2.394190 -30.967100   0.000081  -0.002548 -20.626400  -0.001801  -0.002810 -29.431800  -1.331160   2.357250 -44.197900   0.002438   0.000000 -29.430200   0.001276   0.001131   9.064850   0.866559   3.679050  72.387600   1.589730  -4.824290  -0.951447  -7.608650  10.708700 -14.421000  -3.913850  -2.514540 -38.159400  34.984000  71.454600  31.894800  -0.003267  -0.003032  10.947400   0.001121  -0.002911  31.828700   7.046960  11.174700  26.605000  -0.000094  -0.000444  18.631500  -0.001499  -0.000613  33.006200   4.674490   7.151950  49.947700  -0.004740   0.004124  33.265100   0.004306   0.002400  28.587900   3.432110   6.271680  40.772000   0.000000  -0.003493  27.154200   0.003490  -0.000062  39.960100  -1.059270  -1.262900  59.957500  -0.002856   0.008115  39.931700   0.007534   0.009500   1.294380   7.448260   2.765750   1.104370   0.104208   5.915630  -0.574332  -3.581860   0.680420  -0.000000   0.000000   0.000000   2.661410   6.245800   2.655560   0.132167   1.649150  -6.750280  -1.232610  -3.935460  -2.897400  -0.000000   0.000000  -0.000000
  0.077891  89.570800   0.556638  -2.123120  -4.969010  -2.496120   0.233639   3.094470  -0.362985   0.487989   6.187360  -0.740251   0.673505   0.252507  -0.003000   1.106560   0.512018   1.468690  -3.589730  -2.193760   2.269860 -76.307900  11.673200  -0.078999  -0.108629  -2.076860 -14.543200   9.467820  -5.992770  -0.634681  38.266100  27.106600 -56.528100 -28.931100   0.000000   0.000121  -9.465560  -0.004945  -0.004907 -27.157200   4.289870  -8.306870 -22.474300   0.001897  -0.008445 -15.741000  -0.006503  -0.007581 -28.353200  -1.280820   2.378170 -34.910000   0.002196  -0.007190 -23.250100   0.001297  -0.011685 -27.806500  -1.258140   2.390290 -30.967200   0.000122  -0.002559 -20.626400  -0.001768  -0.002871 -29.434300  -1.325570   2.353510 -44.199100   0.002467   0.000084 -29.432200   0.001297   0.001123   9.075760   0.832636   3.693860  72.370300   1.644450  -4.841580  -0.941521  -7.636750  10.683100 -14.421500  -3.910970  -2.514480 -38.163800  34.994800  71.468700  31.895400  -0.003252  -0.002996  10.947300   0.001124  -0.002854  31.828800   7.046310  11.174900  26.605100  -0.000104  -0.000435  18.630000  -0.001530  -0.000525  33.000100   4.675970   7.155190  49.939000  -0.004756   0.004100  33.259400   0.004300   0.002382  28.585400   3.442910   6.292120  40.754700  -0.000031  -0.003532  27.142700   0.003475  -0.000113  39.954000  -1.059250  -1.262970  59.950300  -0.002859   0.008066  39.925600   0.007500   0.009524   1.293970   7.505040   2.766250   1.103780   0.036914   5.916430  -0.571986  -3.536200   0.673206  -0.000000   0.000000   0.000000   2.667470   6.263620   2.644450   0.131316   1.650900  -6.749610  -1.232290  -3.932930  -2.893740  -0.000000   0.000000   0.000000
  0.080783  89.570700   0.547222  -2.126760  -4.998530  -2.486840   0.233650   3.109000  -0.361452   0.488050   6.216420  -0.737234   0.682810   0.294462  -0.003515   1.121890   0.596662   1.513580  -3.592290  -2.188700   2.293670 -76.306600  11.714600  -0.109867  -0.108144  -2.099000 -14.548900   9.471020  -5.987110  -0.634453  38.274500  27.111600 -56.516900 -28.924800   0.000000   0.000202  -9.462420  -0.004926  -0.004947 -27.160300   4.289980  -8.307170 -22.477000   0.001901  -0.008404 -15.740900  -0.006479  -0.007546 -28.353500  -1.275390   2.374260 -34.901300   0.002223  -0.007248 -23.244300   0.001315  -0.011749 -27.806800  -1.252790   2.386350 -30.967500   0.000168  -0.002574 -20.626300  -0.001706  -0.002947 -29.439900  -1.319970   2.349470 -44.200200   0.002502   0.000227 -29.437300   0.001330   0.001115   9.087110   0.794200   3.712060  72.352600   1.705940  -4.852960  -0.932757  -7.668510  10.649500 -14.425600  -3.900100  -2.514440 -38.171400  35.008800  71.480300  31.896000  -0.003230  -0.002951  10.947300   0.001129  -0.002785  31.828700   7.046180  11.176400  26.605100  -0.000121  -0.000424  18.627400  -0.001569  -0.000420  32.992800   4.679040   7.161520  49.928800  -0.004777   0.004071  33.252600   0.004294   0.002359  28.583400   3.452430   6.309280  40.743000  -0.000075  -0.003581  27.134900   0.003453  -0.000172  39.946500  -1.059110  -1.263000  59.937300  -0.002863   0.008004  39.918200   0.007458   0.009554   1.295840   7.542630   2.766600   1.103530  -0.007650   5.916960  -0.570722  -3.506460   0.662800  -0.000000   0.000000   0.000000   2.675720   6.287630   2.621840   0.127844   1.651870  -6.745590  -1.231980  -3.931480  -2.889880  -0.000000   0.000000  -0.000000
